<svg height="24" viewBox="0 0 24 24" width="24" xmlns="http://www.w3.org/2000/svg">
    <path
        d="M3.29 3.29C3.11 3.46 3.01 3.70 3.00 3.94C2.98 4.19 3.06 4.43 3.22 4.63L3.29 4.70L7.58 8.99H5C4.73 8.99 4.48 9.10 4.29 9.29C4.10 9.47 4 9.73 4 9.99C4 10.26 4.10 10.51 4.29 10.70C4.48 10.89 4.73 10.99 5 10.99H11V4.99C11 4.73 10.89 4.47 10.70 4.29C10.51 4.10 10.26 3.99 10 3.99C9.73 3.99 9.48 4.10 9.29 4.29C9.10 4.47 9 4.73 9 4.99V7.58L4.70 3.29L4.63 3.22C4.43 3.06 4.19 2.98 3.94 3.00C3.70 3.01 3.46 3.11 3.29 3.29ZM19 13H13V19C13 19.26 13.10 19.51 13.29 19.70C13.48 19.89 13.73 20 14 20C14.26 20 14.51 19.89 14.70 19.70C14.89 19.51 15 19.26 15 19V16.41L19.29 20.70L19.36 20.77C19.56 20.92 19.80 21.00 20.04 20.99C20.29 20.98 20.52 20.87 20.70 20.70C20.87 20.52 20.98 20.29 20.99 20.04C21.00 19.80 20.92 19.56 20.77 19.36L20.70 19.29L16.41 15H19C19.26 15 19.51 14.89 19.70 14.70C19.89 14.51 20 14.26 20 14C20 13.73 19.89 13.48 19.70 13.29C19.51 13.10 19.26 13 19 13Z"
        fill="white"
    ></path>
</svg>