<svg height="24" viewBox="0 0 24 24" width="24" xmlns="http://www.w3.org/2000/svg">
    <path
        d="M10 3H3V10C3 10.26 3.10 10.51 3.29 10.70C3.48 10.89 3.73 11 4 11C4.26 11 4.51 10.89 4.70 10.70C4.89 10.51 5 10.26 5 10V6.41L9.29 10.70L9.36 10.77C9.56 10.92 9.80 11.00 10.04 10.99C10.29 10.98 10.52 10.87 10.70 10.70C10.87 10.52 10.98 10.29 10.99 10.04C11.00 9.80 10.92 9.56 10.77 9.36L10.70 9.29L6.41 5H10C10.26 5 10.51 4.89 10.70 4.70C10.89 4.51 11 4.26 11 4C11 3.73 10.89 3.48 10.70 3.29C10.51 3.10 10.26 3 10 3ZM20 13C19.73 13 19.48 13.10 19.29 13.29C19.10 13.48 19 13.73 19 14V17.58L14.70 13.29L14.63 13.22C14.43 13.07 14.19 12.99 13.95 13.00C13.70 13.01 13.47 13.12 13.29 13.29C13.12 13.47 13.01 13.70 13 13.95C12.99 14.19 13.07 14.43 13.22 14.63L13.29 14.70L17.58 19H14C13.73 19 13.48 19.10 13.29 19.29C13.10 19.48 13 19.73 13 20C13 20.26 13.10 20.51 13.29 20.70C13.48 20.89 13.73 21 14 21H21V14C21 13.73 20.89 13.48 20.70 13.29C20.51 13.10 20.26 13 20 13Z"
        fill="white"
    ></path>
</svg>