<svg xmlns="http://www.w3.org/2000/svg" fill="none" viewBox="0 0 48 48"><path d="M12.17 47.83c-2.85-.13-4.4-.6-5.44-1a9.1 9.1 0 0 1-3.36-2.2 9.03 9.03 0 0 1-2.2-3.36c-.4-1.03-.87-2.58-1-5.44C.03 32.75 0 31.83 0 24s.03-8.74.17-11.83c.13-2.85.6-4.4 1-5.44a9.13 9.13 0 0 1 2.2-3.36 9.04 9.04 0 0 1 3.36-2.2c1.03-.4 2.59-.87 5.44-1C15.26.03 16.18 0 24 0s8.74.03 11.83.17c2.85.13 4.4.6 5.44 1a9.06 9.06 0 0 1 3.36 2.2 9.07 9.07 0 0 1 2.2 3.36c.4 1.03.87 2.59 1 5.44.14 3.1.17 4.01.17 11.83s-.03 8.74-.17 11.83c-.13 2.86-.6 4.4-1 5.44a9.08 9.08 0 0 1-2.2 3.36 9.08 9.08 0 0 1-3.36 2.2c-1.03.4-2.6.87-5.44 1-3.09.14-4.01.17-11.83.17s-8.74-.03-11.83-.17" fill="url(#a)"/><path d="M12.17 47.83c-2.85-.13-4.4-.6-5.44-1a9.1 9.1 0 0 1-3.36-2.2 9.03 9.03 0 0 1-2.2-3.36c-.4-1.03-.87-2.58-1-5.44C.03 32.75 0 31.83 0 24s.03-8.74.17-11.83c.13-2.85.6-4.4 1-5.44a9.13 9.13 0 0 1 2.2-3.36 9.04 9.04 0 0 1 3.36-2.2c1.03-.4 2.59-.87 5.44-1C15.26.03 16.18 0 24 0s8.74.03 11.83.17c2.85.13 4.4.6 5.44 1a9.06 9.06 0 0 1 3.36 2.2 9.07 9.07 0 0 1 2.2 3.36c.4 1.03.87 2.59 1 5.44.14 3.1.17 4.01.17 11.83s-.03 8.74-.17 11.83c-.13 2.86-.6 4.4-1 5.44a9.08 9.08 0 0 1-2.2 3.36 9.08 9.08 0 0 1-3.36 2.2c-1.03.4-2.6.87-5.44 1-3.09.14-4.01.17-11.83.17s-8.74-.03-11.83-.17" fill="url(#b)"/><path d="M18.17 24a5.83 5.83 0 1 1 11.65 0 5.83 5.83 0 0 1-11.65 0Zm-3.15 0a8.97 8.97 0 1 0 17.95 0 8.97 8.97 0 0 0-17.95 0Zm16.21-9.33a2.1 2.1 0 1 0 2.1-2.1 2.1 2.1 0 0 0-2.1 2.1Zm-14.3 23.55a9.66 9.66 0 0 1-3.24-.6c-.82-.32-1.4-.7-2-1.3a5.4 5.4 0 0 1-1.3-2.01 9.65 9.65 0 0 1-.6-3.25c-.14-1.84-.15-2.4-.15-7.06 0-4.67.02-5.22.1-7.07.08-1.7.36-2.63.6-3.24.32-.82.7-1.4 1.3-2 .62-.62 1.2-1 2.02-1.3a9.65 9.65 0 0 1 3.25-.62c1.84-.09 2.4-.1 7.06-.1s5.22.02 7.06.1a9.8 9.8 0 0 1 3.25.6c.81.32 1.4.7 2 1.3.62.62 1 1.2 1.31 2.02.24.61.53 1.54.6 3.24.1 1.85.1 2.4.1 7.07 0 4.66 0 5.22-.1 7.06a9.7 9.7 0 0 1-.6 3.25c-.3.81-.7 1.4-1.3 2-.6.62-1.2 1-2 1.31a9.5 9.5 0 0 1-3.26.6c-1.84.1-2.4.1-7.06.1-4.68 0-5.23 0-7.07-.1Zm-.14-31.6c-1.86.09-3.13.38-4.24.82a8.58 8.58 0 0 0-3.1 2 8.53 8.53 0 0 0-2 3.1 12.82 12.82 0 0 0-.83 4.25c-.08 1.86-.1 2.46-.1 7.2 0 4.75.02 5.35.1 7.21.1 1.86.38 3.13.82 4.25a8.54 8.54 0 0 0 2.01 3.1 8.59 8.59 0 0 0 3.1 2c1.11.44 2.38.73 4.24.82 1.87.08 2.46.1 7.2.1 4.75 0 5.35 0 7.21-.1 1.86-.09 3.14-.38 4.25-.8a8.6 8.6 0 0 0 3.1-2.03 8.56 8.56 0 0 0 2-3.1c.44-1.1.74-2.38.82-4.24.1-1.86.1-2.46.1-7.2 0-4.75 0-5.35-.1-7.2a12.82 12.82 0 0 0-.8-4.25 8.6 8.6 0 0 0-2.03-3.1 8.55 8.55 0 0 0-3.1-2 12.8 12.8 0 0 0-4.23-.83c-1.83-.08-2.42-.1-7.18-.1s-5.32.02-7.19.1" fill="#fff"/><defs><radialGradient id="b" cx="0" cy="0" r="1" gradientTransform="matrix(-3.08072 28.81991 -58.78241 -6.28358 15.7 48)" gradientUnits="userSpaceOnUse"><stop stop-color="#FFDA16"/><stop offset="1" stop-color="#FF8216" stop-opacity="0"/></radialGradient><linearGradient id="a" x1="-5.66" x2="43.63" y1="-12.72" y2="45.81" gradientUnits="userSpaceOnUse"><stop stop-color="#0046D1"/><stop offset=".24" stop-color="#6E17FE"/><stop offset=".51" stop-color="#FE02BD"/><stop offset=".68" stop-color="#FE2060"/><stop offset=".98" stop-color="#FE1491"/></linearGradient></defs></svg>