<svg xmlns="http://www.w3.org/2000/svg" width="500" height="137" fill="none"><path fill="#32B846" d="m402.217 133.812-14.268-71.093h19.188l5.904 45.386 5.412-45.387h19.188l-14.637 71.094zm67.022 1.231q-7.749 0-13.284-2.707-5.535-2.829-8.487-8.118-2.952-5.412-2.952-12.915V85.228q0-7.627 2.952-12.915 2.952-5.29 8.487-7.996 5.658-2.828 13.284-2.828 7.872 0 13.038 2.706 5.289 2.706 7.872 7.995 2.706 5.288 2.706 13.038v14.268h-28.536v13.652q0 2.706.615 4.429.615 1.72 1.722 2.459 1.107.738 2.583.738t2.583-.615q1.23-.738 1.845-2.214.738-1.476.738-4.059v-7.503h18.45v6.888q0 10.824-6.273 16.359-6.273 5.413-17.343 5.413m-4.92-44.896h10.086v-7.134q0-2.829-.738-4.428-.615-1.598-1.845-2.213-1.107-.615-2.706-.615-1.476 0-2.583.737-.984.738-1.599 2.584-.615 1.72-.615 5.043zM358.906 63.438h19.531v70.313h-19.531zM359.097 40.369C356.474 42.86 355 46.24 355 49.766c0 3.524 1.474 6.904 4.097 9.396q.177.175.413.271a1.33 1.33 0 0 0 1.401-.256c.119-.113.214-.248.278-.396a1.15 1.15 0 0 0-.009-.935 1.2 1.2 0 0 0-.285-.392c-2.146-2.04-3.352-4.805-3.352-7.688s1.206-5.65 3.352-7.689q.184-.168.285-.392a1.14 1.14 0 0 0 .009-.934 1.2 1.2 0 0 0-.278-.397 1.3 1.3 0 0 0-.418-.264 1.33 1.33 0 0 0-.983.008 1.3 1.3 0 0 0-.413.27m17.538.426a1.18 1.18 0 0 0-.372.855c0 .32.134.627.372.854a10.25 10.25 0 0 1 2.344 3.332 9.8 9.8 0 0 1 .823 3.93 9.8 9.8 0 0 1-.823 3.93 10.25 10.25 0 0 1-2.344 3.333 1.18 1.18 0 0 0-.344.846c.005.313.138.613.372.835s.549.349.879.354.649-.112.89-.327c2.505-2.38 3.912-5.606 3.912-8.97 0-3.366-1.407-6.592-3.912-8.972a1.3 1.3 0 0 0-.898-.353c-.337 0-.66.127-.899.353m-3.599 3.416a1.18 1.18 0 0 0-.372.854c0 .32.134.628.372.854 1.073 1.02 1.676 2.403 1.676 3.845s-.603 2.826-1.676 3.845c-.22.23-.338.532-.33.843.007.31.141.606.372.826s.543.346.87.354c.327.007.644-.105.886-.314a7.85 7.85 0 0 0 1.793-2.548 7.5 7.5 0 0 0 .629-3.006 7.5 7.5 0 0 0-.629-3.005 7.85 7.85 0 0 0-1.793-2.548 1.3 1.3 0 0 0-.412-.262 1.33 1.33 0 0 0-.974 0q-.234.092-.413.262zm-9.895 0a7.85 7.85 0 0 0-1.793 2.548 7.5 7.5 0 0 0-.629 3.006c0 1.032.214 2.053.629 3.006a7.85 7.85 0 0 0 1.793 2.548c.239.227.563.354.9.354s.661-.127.9-.354c.238-.227.373-.534.373-.855s-.135-.628-.373-.855a5.4 5.4 0 0 1-1.241-1.763 5.2 5.2 0 0 1-.435-2.081c0-.714.148-1.421.435-2.08a5.4 5.4 0 0 1 1.241-1.765c.227-.228.351-.532.346-.847a1.18 1.18 0 0 0-.373-.837 1.3 1.3 0 0 0-.881-.354 1.3 1.3 0 0 0-.892.329m5.848 3.138c-.675 0-1.322.254-1.799.707a2.36 2.36 0 0 0-.745 1.709c0 .64.268 1.255.745 1.709a2.61 2.61 0 0 0 1.799.707c.675 0 1.322-.254 1.799-.707a2.36 2.36 0 0 0 .745-1.709c0-.64-.268-1.255-.745-1.709a2.6 2.6 0 0 0-1.799-.707"/><path fill="#FCFDFC" d="M125.063 135.043q-7.626 0-13.284-2.584-5.535-2.583-8.61-7.749-2.952-5.166-2.952-12.915v-27.06q0-7.748 2.952-12.915 3.075-5.165 8.61-7.748 5.658-2.584 13.284-2.584t13.161 2.584q5.658 2.582 8.733 7.748t3.075 12.916v27.059q0 7.749-3.075 12.915t-8.733 7.749q-5.535 2.584-13.161 2.584m.123-13.285q1.968 0 3.075-.984 1.107-1.107 1.476-2.952.492-1.968.492-4.674V83.382q0-2.705-.492-4.55-.369-1.968-1.476-2.953-1.107-1.107-3.075-1.107t-3.075 1.107q-1.107.984-1.599 2.953-.492 1.845-.492 4.55v29.766q0 2.706.492 4.674.492 1.845 1.599 2.952 1.107.984 3.075.984m59.458 12.793q-7.995 0-12.3-2.338t-6.027-6.765q-1.599-4.551-1.599-10.947V75.879h-6.888V62.72h6.888V41.07h20.295v21.648h10.086v13.16h-10.086v36.654q0 3.075 1.722 4.428 1.845 1.353 4.551 1.353 1.599 0 2.952-.123a36 36 0 0 1 2.46-.369v15.744q-1.599.246-5.043.616a66 66 0 0 1-7.011.369m57.39.492q-3.936 0-7.872-1.723-3.813-1.845-7.38-4.92v5.412h-20.049v-99.63h20.049v33.703q3.69-3.2 7.626-4.798 4.059-1.598 7.872-1.599 4.059 0 6.888 1.6 2.952 1.599 4.797 4.55 1.845 2.829 2.706 6.642t.861 8.118v30.627q0 6.642-1.845 11.562-1.722 4.92-5.166 7.749-3.444 2.707-8.487 2.707m-9.717-12.916q1.968 0 3.075-1.107t1.599-2.829q.492-1.845.492-4.059v-33.21q0-2.09-.492-3.69-.492-1.721-1.599-2.706-.984-.983-2.829-.983a6.8 6.8 0 0 0-3.075.737q-1.353.615-2.706 1.6v44.279a22 22 0 0 0 2.706 1.476q1.476.492 2.829.492m50.536 12.916q-5.412 0-9.102-2.584t-5.535-6.519q-1.845-4.059-1.845-8.241 0-6.642 2.583-11.193a24.9 24.9 0 0 1 7.011-7.626q4.305-3.075 9.471-5.165a144 144 0 0 1 10.209-3.937v-7.134q0-1.845-.369-3.198-.369-1.475-1.23-2.213-.861-.862-2.583-.862t-2.706.739q-.861.738-1.23 2.09-.369 1.23-.492 2.83l-.492 5.165-18.696-.737q.615-12.793 6.765-18.82 6.273-6.15 18.696-6.15 10.824 0 16.113 6.028 5.412 5.903 5.412 15.374v33.21q0 4.428.123 7.749.246 3.321.492 5.781.369 2.46.615 4.182h-17.958a359 359 0 0 0-.861-6.15q-.492-3.321-.738-3.936-1.23 4.428-4.674 7.872-3.321 3.445-8.979 3.445m7.134-13.531q1.23 0 2.214-.492a6.5 6.5 0 0 0 1.968-1.353 14 14 0 0 0 1.476-1.722V98.512a49 49 0 0 0-4.551 3.074q-2.091 1.476-3.567 3.321a15.4 15.4 0 0 0-2.337 4.059q-.738 2.091-.738 4.797 0 3.567 1.476 5.658t4.059 2.091"/><path fill="#32B846" d="M328.85 133.812v-99.63h19.926v99.63z"/><path fill="#FCFDFC" d="m92.078 11.219.67.013c.248.01.248.01.502.018.388 2.732.388 2.732 0 4-.954.948-2.047 1.442-3.25 2-.763.495-1.364 1.044-1.871 1.809-1.063 1.588-1.063 1.588-2.14 1.938-.747.117-1.486.189-2.239.253l-.5.25.75-.25q.711-.025 1.422-.016l.753.007.575.009.157.542c.635 2.052 1.54 3.842 2.593 5.708q.255.498.5 1 .303-.105.615-.21c1.776-.581 3.578-1.066 5.385-1.54l.908-.245c1.824-.414 1.824-.414 2.608.05.421.414.421.414.984 1.195-1.001-.977-1.001-.977-1.25-1.5.08-1.75.58-3.434 1.016-5.125l.213-.84q.259-1.018.521-2.035a1201 1201 0 0 1 4.039-.573q.74-.105 1.479-.208l.896-.127c2.127-.234 2.127-.234 3.014.367 4.739 4.517 4.739 4.517 4.867 6.483-.664 6.63-.664 6.63-1.795 8.058-.912.302-1.828.383-2.781.469l-.764.088c-4.073.443-4.073.443-5.221-.307l-.484-.5 1.25 1.25-.528 1.935q-.219.804-.426 1.612c-1.267 4.81-1.267 4.81-2.494 5.823-1.028.487-2.089.557-3.214.596-.826.048-1.619.213-2.43.371-2.876.561-2.876.561-3.908.163a15 15 0 0 1-1.422-1.312q-.19-.2-.389-.405-.598-.637-1.189-1.283l-.394-.412c-2.115-2.233-2.115-2.233-2.093-3.701.188-.753.422-1.43.737-2.137v-.25l-.052.603c-.183.975-.377 1.577-.948 2.397-1.442.827-3.141 1.143-4.75 1.5q-.5.123-1 .25c.27 2.502.819 4.76 2.165 6.914.335.586.335.586.335 1.336l-.75.25c-3.787-3.897-6.279-9.102-6.297-14.594q.017-.703.047-1.406h1l.147.74.197.963.193.958c.17.865.17.865.713 1.589l-.36-.797c-1.338-2.969-.59-6.238.36-9.203a19 19 0 0 1 1.75-3.25 40 40 0 0 0-.14-1.61c-.022-1.325.126-2.087 1.008-3.106.491-.506.997-.99 1.523-1.461.311-.28.608-.576.902-.875 1.972-1.937 5.433-4.305 8.285-4.23"/><path fill="#3D3D3C" d="M114 30.75c.25.75.25.75.078 1.375-.102 1.144.248 1.925.67 2.978.638 1.637.52 3.146.502 4.897l3.5.25v.25H115l-.5 1c-1.16 1.66-3.017 3.579-4.944 4.237L109 46c-.175.561-.175.561-.25 1.25a70 70 0 0 1-1.001 2.368c-.413.978-.591 1.61-.249 2.632-3.335 1.546-6.636 1.878-10.25 1.75v-.5l-.64-.062c-1.04-.227-1.709-.63-2.61-1.188l.5-.25c.537.226 1.041.498 1.556.773 1.93.632 3.929.085 5.85-.351l.756-.162c2.376-.434 2.376-.434 4.256-1.792l.27-.609.277-.594c.4-1.072.717-2.166 1.035-3.265a209 209 0 0 0-2.641-1.64l-.75-.477c-1.413-.884-1.413-.884-3.021-1.139l-.838.256q-.543.117-1.087.226-.905.195-1.807.402c-.97.215-1.888.398-2.882.408-.952.028-1.608.063-2.474.464-1.155 1.447-1.7 3.45-2 5.25-6.686-1.361-6.686-1.361-8.062-3.287-.486-.875-.843-1.775-1.188-2.713l-.262-.695c-.473-1.412-.647-2.823-.738-4.305 1.992-.54 3.98-1.075 6-1.5l.201-.857.268-1.112.132-.565c.342-1.41.342-1.41.899-1.966l-.078.688-.054.489c-.118.573-.118.573-.416 1.217-.357.864-.505 1.415-.452 2.356.689 1.361 1.784 2.456 2.831 3.547.419.453.419.453.99 1.226.529.681.908 1.085 1.679 1.477 1.473.093 2.817-.184 4.25-.5l1.305-.265q1.244-.255 2.482-.534c.963-.201.963-.201 1.713-.201l.126-.497c.538-2.052 1.241-4.023 1.994-6.005l.268-.74.247-.66c.14-.729.019-.99-.385-1.598-.385-.427-.385-.427-.75-.75l.25-.5.484.625c.836.682 1.241.76 2.3.702a98 98 0 0 0 3.254-.399c1.079-.15 2.123-.2 3.212-.178z"/><path fill="#3F3F3E" d="M109.5 13.25c2.108.843 3.919 2.375 5.5 4v.5l.75.25c.398.54.758 1.071 1.109 1.64l.303.481C119 23.077 119 23.077 119 24.25q-.664.01-1.328.016l-.747.008c-.675-.024-.675-.024-1.425-.274l-.028.715c-.108 2.096-.373 4.01-.972 6.035h-.25c.144-1.674.37-3.323.649-4.98.192-1.467.227-2.293-.68-3.504l-.488-.653-.481-.613-.38-.488a26 26 0 0 0-1.12-1.262l-.406-.505c-.767-.838-1.28-1.218-2.433-1.316-.98.058-1.941.171-2.911.321l-.968.135q-.877.124-1.752.264c-.769.1-1.505.118-2.28.101l-.074.452a47 47 0 0 1-.691 3.383l-.14.567q-.14.56-.287 1.116c-.247.99-.397 1.755-.058 2.732.49.573.49.573 1 1l-.25.5-.603-.771c-.488-.486-.735-.715-1.43-.775-.624.09-1.216.227-1.826.39l-.663.155c-.662.158-1.32.328-1.978.501l-1.144.286c-1.592.373-1.592.373-3.106.964l-.31-.75a29 29 0 0 0-.942-1.984l-.263-.506q-.267-.51-.539-1.02c-.566-1.097-.84-2.008-.946-3.24-1.712.122-3.333.34-5 .75.563-.563.901-.668 1.656-.89l.68-.204c.598-.14 1.086-.172 1.695-.172 1.317-.318 1.643-.992 2.42-2.056 1.265-1.56 3.267-3.085 5.299-3.428 2.23-.118 4.517.738 6.266 2.094 1.166.645 2.202.355 3.484.156 2.103-.3 4.124-.565 6.25-.5z"/><path fill="#DCDCDC" d="m104.795 43.485.703.442.721.464.738.466q.899.569 1.793 1.143-.278.892-.562 1.781l-.156.504c-.461 1.426-.926 2.625-2.292 3.392-1.244.452-2.542.719-3.834.995l-.75.17c-2.376.516-4.162.637-6.406-.342l2.5 1v.5c-4.72.2-9.276-2.208-12.936-4.98-.534-.493-.801-.85-1.064-1.52.612-.225.893-.295 1.504-.036l.558.333c1.713.92 3.554 1.285 5.438 1.703l.302-.831.401-1.09.198-.547q.196-.531.408-1.056c.158-.394.3-.795.437-1.198.886-.929 2.133-.902 3.363-1.06l1.638-.239.79-.114c1.069-.172 2.087-.443 3.121-.76 1.303-.23 2.301.19 3.387.88"/><path fill="#40403F" d="M88 32.75c.482 1.224-.148 2.284-.571 3.452-.212.946-.164 1.22.321 2.048.808 1.085 1.734 2.074 2.638 3.08.362.42.362.42.855 1.11.476.622.8.967 1.507 1.31 1.464.07 2.823-.197 4.25-.5l1.306-.264q1.243-.256 2.481-.535c.963-.201.963-.201 1.713-.201l.25-.5v.75q-.748.224-1.5.438l-.491.143c-1.095.3-2.15.47-3.282.567-2.645.123-2.645.123-4.912 1.267-.739 1.108-1.051 2.293-1.315 3.585l-.157.751-.093.499c-6.686-1.361-6.686-1.361-8.062-3.287-.486-.875-.843-1.775-1.188-2.713l-.262-.695c-.473-1.412-.647-2.823-.738-4.305 1.992-.54 3.98-1.075 6-1.5l.21-.857.274-1.112.139-.565c.349-1.41.349-1.41.627-1.966"/><path fill="#FCFDFC" d="m98.219 9.875.763.01c3.838.102 6.925 1.016 10.268 2.865V17l-2.828.36-.797.101q-.795.1-1.59.195-.779.093-1.554.198c-2.187.263-2.187.263-3.2-.526-1.678-1.156-3.571-1.6-5.531-2.078-.248-1.427-.276-2.803-.25-4.25 1.62-.96 2.85-1.161 4.719-1.125"/><path fill="#DEDEDD" d="m115.5 24 3.75.5c1.013 2.44 1.352 4.883 1.359 7.516l.003.747c-.038 2.384-.582 4.498-1.362 6.737l-.25.75q-.586.01-1.172.016l-.659.008A10 10 0 0 1 115.25 40l-.02-.597a18.1 18.1 0 0 0-.996-5.16c-.438-1.39-.593-2.113.056-3.453.466-1.197.572-2.51.757-3.774l.134-.88q.163-1.068.319-2.136"/><path fill="#FDFDFD" d="M104.149 43.103q.937.556 1.851 1.147c-.521 1.563-2.896 2.436-4.324 3.179-2.833 1.357-5.72 2.376-8.88 2.337l-.524-.004L91 49.75c.142-1.284.42-2.37.906-3.578l.354-.92c.49-.752.49-.752 1.238-1.075q.499-.1 1.002-.177l.652-.12c.993-.18 1.99-.342 2.986-.505 1.576-.264 1.576-.264 3.123-.656 1.15-.34 1.838-.187 2.888.383"/><path fill="#2C2D2C" d="M114 34.25c.849.566.948.888 1.165 1.856.171 1.295.112 2.59.085 3.894l3.5.25v.25H115l-.5 1c-1.16 1.66-3.017 3.579-4.944 4.237L109 46c-.175.561-.175.561-.25 1.25a70 70 0 0 1-1.001 2.368c-.413.978-.591 1.61-.249 2.632-3.335 1.546-6.636 1.878-10.25 1.75v-.5l-.64-.062c-1.04-.227-1.709-.63-2.61-1.188l.5-.25c.537.226 1.041.498 1.556.773 1.93.632 3.929.085 5.85-.351l.756-.162c2.376-.434 2.376-.434 4.256-1.792l.27-.609.295-.663A33 33 0 0 0 108.5 46l-2.25-1.25c.279-.836.494-1.015 1.156-1.562 2.838-2.424 5.263-5.408 6.594-8.938"/><path fill="#DDDDDC" d="M117.341 40.363c.659.137.659.137 1.409.637-2.656 4.902-5.855 8.625-11 11l-.75-.5q.248-.773.51-1.54.254-.757.48-1.522c.708-2.172 1.557-3.062 3.51-4.188.777-.575 1.386-1.082 1.93-1.883 1.155-1.686 1.845-2.141 3.911-2.004"/><path fill="#3D3E3C" d="M80 19.75h.25v2.75l.5.25q-.268.315-.547.64c-1.563 2.188-2.114 5.287-2.703 7.86h-1c.068-3.508.882-8.882 3.5-11.5"/><path fill="#393A38" d="M108.5 46.25h.5c-.409 1.483-.874 2.855-1.582 4.224-.214.669-.1 1.107.082 1.776-3.335 1.546-6.636 1.878-10.25 1.75v-.5l-.64-.062c-1.04-.227-1.709-.63-2.61-1.188l.5-.25c.537.226 1.041.498 1.556.773 1.93.632 3.929.085 5.85-.351l.756-.162c2.381-.433 2.381-.433 4.256-1.801l.27-.615.295-.664c.379-.966.722-1.936 1.017-2.93"/><path fill="#2C2D2C" d="M115.5 18.25c1.59 1.403 2.653 3.32 3.5 5.25v.75h-2.75q-.189-1.219-.375-2.437l-.108-.698-.103-.674-.095-.618c-.069-.573-.069-.573-.069-1.573"/><path fill="#F9F9F9" d="M115.5 24h.75c.143 3.48-.449 6.514-1.75 9.75-.377-.335-.377-.335-.75-.75.034-.7.188-1.314.41-1.977.756-2.28 1.018-4.651 1.34-7.023"/><path fill="#F7F8F7" d="M83.5 47.25c.843.178 1.575.492 2.36.844 1.592.677 3.196 1.07 4.89 1.406v.5c-5.649-.221-5.649-.221-7.075-1.526L83.25 48z"/><path fill="#626460" d="M95 10.25c-.937.75-.937.75-1.5.75l.25 4.25H93l.25-4h-2c.941-.941 2.458-1.08 3.75-1"/><path fill="#FCFDFC" d="M31.25 72.51c0-2.806 2.815-4.74 5.435-3.733q1.072.411 2.157.83c.377.144.774.232 1.178.257 1.765.11 1.946.08 3.869-.235 5.7-.24 10.339 1.926 15.602 4.168 4.62 1.897 8.453 2.666 13.359 2.76 4.696.163 5.084.177 6.702 1.674.313.29.577.632.768 1.014 1.057 2.115 1.591 4.146 1.693 6.563a3.4 3.4 0 0 1-.365 1.673c-.718 1.425-1.532 2.726-2.41 3.994-1 1.445-2.873 1.976-4.518 1.357-8.208-2.354-16.93-1.596-25.096.568-5.964 1.39-10.294.333-15.803-1.688-1.554-.57-2.571-2.064-2.571-3.72z"/><path fill="#FCFDFC" d="M97.083 57.232c.255-.446.68-.761 1.183-.868.89-.19 1.798.312 2.025 1.192 1.971 7.632-1.27 14.247-4.169 21.215-4.362 10.242-5.271 12.377-6.818 14.95-.839 1.394-2.484 2.116-4.06 1.715q-.695-.176-1.377-.388c-1.782-.553-2.8-2.447-2.222-4.22.226-.69.5-1.366.856-2.066.117-.232.222-.471.291-.722.79-2.888.18-5.317-.76-8.196a4 4 0 0 0-.342-.757c-1.003-1.71-1.501-2.41-3.103-3-.44-.16-.783-.516-.88-.975-.12-.566.154-1.15.67-1.412l1.126-.572c6.694-3.55 12.79-7.391 16.75-14.443zM19.777 133.812v-99.63h43.05v14.883H41.794v25.093H60.12v15.374H41.793v44.28z"/></svg>
