<svg width="45" height="45" viewBox="0 0 45 45" fill="none" xmlns="http://www.w3.org/2000/svg">
<path d="M15.625 1.34767C15.9561 1.35444 15.9561 1.35444 16.2939 1.36135C16.5429 1.37005 16.5429 1.37005 16.7969 1.37893C17.1847 4.11094 17.1847 4.11094 16.7969 5.37947C15.8432 6.32771 14.75 6.82129 13.5469 7.37975C12.7836 7.87442 12.1834 8.42437 11.6758 9.18859C10.6133 10.7774 10.6133 10.7774 9.53613 11.1273C8.7891 11.2443 8.04983 11.3163 7.29688 11.3803C7.04937 11.5041 7.04937 11.5041 6.79688 11.6303C7.16813 11.5066 7.16813 11.5066 7.54688 11.3803C8.02055 11.3632 8.4948 11.3591 8.96875 11.3647C9.21722 11.3669 9.46568 11.3692 9.72168 11.3715C10.0064 11.3759 10.0064 11.3759 10.2969 11.3803C10.3488 11.5592 10.4006 11.7381 10.4541 11.9224C11.0885 13.9746 11.9946 15.7647 13.0469 17.6311C13.2162 17.9632 13.3841 18.296 13.5469 18.6313C13.7499 18.5617 13.9529 18.492 14.1621 18.4203C15.9383 17.8399 17.7397 17.3546 19.5469 16.881C19.8466 16.8001 20.1463 16.7192 20.4551 16.6359C22.279 16.2221 22.279 16.2221 23.0625 16.6867C23.4844 17.0998 23.4844 17.0998 24.0469 17.8812C23.0459 16.9045 23.0459 16.9045 22.7969 16.381C22.8765 14.63 23.3766 12.9464 23.8125 11.2553C23.9181 10.8395 23.9181 10.8395 24.0259 10.4153C24.1985 9.73656 24.3722 9.0581 24.5469 8.37988C25.5517 8.23612 26.5568 8.09373 27.562 7.95258C27.9035 7.90444 28.2448 7.85594 28.5862 7.80705C29.0788 7.73657 29.5716 7.66753 30.0645 7.59853C30.3603 7.55663 30.6562 7.51473 30.9611 7.47156C33.0876 7.23797 33.0876 7.23797 33.9746 7.83879C38.7142 12.3566 38.7142 12.3566 38.8418 14.3231C38.1781 20.9528 38.1781 20.9528 37.0469 22.3818C36.135 22.6842 35.2191 22.7648 34.2656 22.8506C34.0136 22.8796 33.7616 22.9086 33.502 22.9385C29.4293 23.3817 29.4293 23.3817 28.2812 22.6318C28.1214 22.4668 27.9616 22.3018 27.7969 22.1318C28.2094 22.5443 28.6219 22.9569 29.0469 23.3819C28.872 24.0273 28.6962 24.6723 28.5188 25.3169C28.3728 25.8533 28.2306 26.3907 28.0925 26.9292C26.826 31.7394 26.826 31.7394 25.599 32.7532C24.5706 33.2405 23.5099 33.3106 22.3854 33.3492C21.5586 33.3971 20.7661 33.5619 19.9545 33.7204C17.0788 34.2814 17.0788 34.2814 16.0469 33.8834C15.5293 33.4587 15.084 33.0513 14.625 32.5707C14.4967 32.4371 14.3684 32.3035 14.2363 32.1658C13.8356 31.7419 13.4414 31.3126 13.0469 30.883C12.9168 30.7471 12.7868 30.6113 12.6528 30.4713C10.538 28.2376 10.538 28.2376 10.5596 26.7691C10.7478 26.0161 10.982 25.3401 11.2969 24.6321C11.2969 24.5496 11.2969 24.4671 11.2969 24.3821C11.2713 24.6809 11.2713 24.6809 11.2451 24.9857C11.0614 25.9603 10.868 26.5627 10.2969 27.3825C8.85476 28.2096 7.15573 28.5255 5.54688 28.8827C5.2133 28.9651 4.87988 29.0481 4.54688 29.1327C4.81724 31.6349 5.36573 33.8935 6.71191 36.0477C7.04688 36.6337 7.04688 36.6337 7.04688 37.3838C6.79937 37.4664 6.55187 37.5489 6.29688 37.6339C2.51025 33.7359 0.0178293 28.5303 0 23.0381C0.0117496 22.5692 0.0258608 22.1003 0.046875 21.6317C0.376875 21.6317 0.706875 21.6317 1.04688 21.6317C1.09521 21.8757 1.14355 22.1197 1.19336 22.3711C1.25846 22.6892 1.32355 23.0073 1.39062 23.3351C1.45443 23.6512 1.51824 23.9674 1.58398 24.2932C1.75382 25.1578 1.75382 25.1578 2.29688 25.8823C2.17828 25.6193 2.05969 25.3563 1.9375 25.0853C0.598576 22.116 1.3473 18.846 2.29688 15.8809C2.78084 14.7207 3.3505 13.6752 4.04688 12.6305C4.01181 12.093 3.96296 11.5564 3.90625 11.0209C3.88436 9.69476 4.03287 8.93268 4.91479 7.91376C5.40616 7.40726 5.91188 6.92277 6.43799 6.4525C6.74931 6.17237 7.04611 5.87627 7.33984 5.57774C9.31188 3.63984 12.7724 1.27159 15.625 1.34767Z" fill="#FCFDFC"/>
<path d="M37.5469 20.8818C37.7969 21.6319 37.7969 21.6319 37.625 22.257C37.5228 23.4013 37.873 24.1825 38.2949 25.2359C38.9328 26.8728 38.8144 28.3814 38.7969 30.133C40.5294 30.2568 40.5294 30.2568 42.2969 30.3831C42.2969 30.4656 42.2969 30.5481 42.2969 30.6331C41.0594 30.6331 39.8219 30.6331 38.5469 30.6331C38.3819 30.9632 38.2169 31.2932 38.0469 31.6332C36.8872 33.2942 35.0294 35.2125 33.1025 35.8711C32.9192 35.9578 32.7358 36.0445 32.5469 36.1339C32.3721 36.6953 32.3721 36.6953 32.2969 37.384C31.9766 38.1804 31.6452 38.9685 31.2959 39.7525C30.8829 40.7309 30.7051 41.3631 31.0469 42.3847C27.7118 43.9308 24.4113 44.2632 20.7969 44.135C20.7969 43.9699 20.7969 43.8049 20.7969 43.6349C20.5855 43.6143 20.3741 43.5936 20.1562 43.5724C19.1166 43.3455 18.4479 42.9434 17.5469 42.3847C17.7119 42.3022 17.8769 42.2197 18.0469 42.1347C18.5842 42.3608 19.0883 42.6329 19.6025 42.9072C21.5321 43.5396 23.5317 42.9932 25.4531 42.5566C25.7026 42.5033 25.952 42.4499 26.209 42.395C28.5853 41.9607 28.5853 41.9607 30.4648 40.6022C30.5538 40.4014 30.6427 40.2006 30.7344 39.9938C30.8259 39.7975 30.9174 39.6012 31.0117 39.399C31.4116 38.3266 31.7292 37.2329 32.0469 36.1339C31.1714 35.5791 30.2896 35.0352 29.4062 34.493C29.0348 34.2573 29.0348 34.2573 28.6558 34.0169C27.2428 33.1328 27.2428 33.1328 25.6348 32.8776C25.3583 32.962 25.0818 33.0464 24.7969 33.1334C24.4352 33.2115 24.0728 33.2865 23.71 33.3591C23.1067 33.4902 22.5043 33.624 21.9026 33.7617C20.9334 33.9763 20.0152 34.1591 19.0205 34.1697C18.0689 34.1973 17.413 34.2325 16.5469 34.6337C15.3921 36.0809 14.8473 38.0849 14.5469 39.8844C7.86066 38.5229 7.86066 38.5229 6.48438 36.5968C5.9991 35.7222 5.64145 34.8219 5.29688 33.8836C5.21051 33.6541 5.12414 33.4246 5.03516 33.1881C4.5616 31.7762 4.38832 30.3651 4.29688 28.8829C6.28912 28.3421 8.27611 27.8081 10.2969 27.3827C10.3633 27.0997 10.4296 26.8167 10.498 26.5251C10.5871 26.1546 10.6763 25.7841 10.7656 25.4136C10.8091 25.227 10.8526 25.0404 10.8975 24.8481C11.2402 23.4388 11.2402 23.4388 11.7969 22.882C11.7711 23.109 11.7453 23.3359 11.7188 23.5696C11.701 23.7311 11.6833 23.8926 11.665 24.059C11.5469 24.6323 11.5469 24.6323 11.249 25.2759C10.8916 26.1407 10.7437 26.6917 10.7969 27.6327C11.4856 28.994 12.5809 30.0886 13.6279 31.1802C14.0469 31.6332 14.0469 31.6332 14.6172 32.4058C15.1468 33.0879 15.5261 33.4912 16.2969 33.8836C17.7695 33.9762 19.1139 33.6991 20.5469 33.3835C20.9817 33.2948 21.4166 33.2065 21.8516 33.1188C22.6812 32.9493 23.5079 32.7705 24.334 32.5845C25.2969 32.3833 25.2969 32.3833 26.0469 32.3833C26.1093 32.1375 26.1093 32.1375 26.173 31.8866C26.7113 29.8341 27.4141 27.8627 28.1665 25.88C28.255 25.6362 28.3434 25.3924 28.4346 25.1411C28.5162 24.923 28.5978 24.7048 28.6819 24.48C28.8221 23.7512 28.7013 23.491 28.2969 22.882C27.9116 22.4547 27.9116 22.4547 27.5469 22.1319C27.6294 21.9669 27.7119 21.8019 27.7969 21.6319C27.9567 21.8382 28.1166 22.0444 28.2812 22.257C29.1172 22.9395 29.5216 23.018 30.5811 22.9592C31.6676 22.8421 32.7527 22.7136 33.8348 22.5602C34.9141 22.4102 35.9578 22.3593 37.0469 22.382C37.2119 21.8869 37.3769 21.3918 37.5469 20.8818Z" fill="#3D3D3C"/>
<path d="M33.0469 3.37939C35.155 4.22275 36.9657 5.75459 38.5469 7.37994C38.5469 7.54496 38.5469 7.70999 38.5469 7.88001C38.7944 7.96252 39.0419 8.04503 39.2969 8.13004C39.695 8.67052 40.0544 9.20161 40.4062 9.77089C40.506 9.92957 40.6057 10.0882 40.7084 10.2517C42.5469 13.2081 42.5469 13.2081 42.5469 14.3809C42.1042 14.3877 41.6615 14.3925 41.2188 14.3965C40.849 14.4009 40.849 14.4009 40.4717 14.4053C39.7969 14.3809 39.7969 14.3809 39.0469 14.1309C39.0375 14.3668 39.0282 14.6027 39.0186 14.8458C38.9112 16.9427 38.6463 18.8571 38.0469 20.8818C37.9644 20.8818 37.8819 20.8818 37.7969 20.8818C37.9405 19.207 38.1667 17.5582 38.4463 15.9006C38.6379 14.4343 38.6725 13.6075 37.7656 12.3963C37.6048 12.1809 37.444 11.9656 37.2783 11.7438C37.1194 11.5414 36.9606 11.339 36.7969 11.1305C36.6715 10.9693 36.5462 10.8081 36.417 10.6421C36.0592 10.2044 35.6823 9.79361 35.2969 9.38021C35.1628 9.21358 35.0288 9.04695 34.8906 8.87526C34.1236 8.037 33.6113 7.6567 32.458 7.55868C31.4775 7.6166 30.5165 7.73029 29.5469 7.88001C29.0678 7.94673 29.0678 7.94673 28.5791 8.01479C27.9943 8.09772 27.4102 8.18538 26.8271 8.27948C26.0574 8.37872 25.322 8.39756 24.5469 8.38008C24.5224 8.52931 24.4979 8.67854 24.4727 8.83229C24.2767 9.96959 24.0609 11.0955 23.7822 12.2156C23.7359 12.4028 23.6896 12.5901 23.6418 12.7831C23.5486 13.1556 23.4531 13.5275 23.3552 13.8988C23.1081 14.8886 22.9576 15.6544 23.2969 16.6312C23.7864 17.2045 23.7864 17.2045 24.2969 17.6313C24.1731 17.8789 24.1731 17.8789 24.0469 18.1314C23.7486 17.7495 23.7486 17.7495 23.4443 17.3598C22.9556 16.8737 22.7088 16.6453 22.0148 16.5851C21.3899 16.6753 20.7975 16.8121 20.1875 16.975C19.9687 17.0263 19.7499 17.0777 19.5245 17.1306C18.8627 17.2885 18.205 17.4585 17.5469 17.6313C17.1657 17.727 16.7846 17.8224 16.4033 17.9175C14.8112 18.2903 14.8112 18.2903 13.2969 18.8815C13.1944 18.634 13.0919 18.3864 12.9863 18.1314C12.6969 17.4553 12.3843 16.7992 12.0449 16.1468C11.9582 15.9798 11.8715 15.8129 11.7822 15.6408C11.6041 15.3001 11.4244 14.9602 11.2432 14.6212C10.6774 13.5233 10.4028 12.613 10.2969 11.3805C8.58483 11.5021 6.96427 11.7205 5.29688 12.1306C5.86019 11.5672 6.19833 11.463 6.95312 11.2398C7.17742 11.1728 7.40172 11.1058 7.63281 11.0367C8.23121 10.8959 8.71878 10.8648 9.32812 10.8648C10.6449 10.5462 10.9709 9.87232 11.7471 8.80787C13.0131 7.24703 15.0151 5.72295 17.0469 5.37967C19.2769 5.26188 21.5639 6.11747 23.3125 7.4737C24.4787 8.11891 25.5151 7.82901 26.7969 7.62998C28.8994 7.32989 30.9206 7.06447 33.0469 7.12991C33.0469 5.89224 33.0469 4.65457 33.0469 3.37939Z" fill="#3F3F3E"/>
<path d="M28.3418 33.6189C28.5738 33.7647 28.8059 33.9106 29.0449 34.0608C29.2828 34.2138 29.5206 34.3667 29.7656 34.5243C30.0093 34.6782 30.2529 34.8321 30.5039 34.9907C31.103 35.3695 31.7005 35.7507 32.2969 36.1339C32.1122 36.7287 31.9243 37.3222 31.7344 37.9154C31.6831 38.0817 31.6319 38.248 31.5791 38.4193C31.1177 39.8456 30.6524 41.0444 29.2871 41.8114C28.0433 42.2637 26.7449 42.5304 25.4531 42.8067C25.2056 42.8629 24.9581 42.9191 24.7031 42.9771C22.3269 43.4928 20.5408 43.6141 18.2969 42.6348C19.1219 42.9648 19.9469 43.2949 20.7969 43.6349C20.7969 43.7999 20.7969 43.9649 20.7969 44.135C16.0778 44.3355 11.5212 41.9265 7.86133 39.1538C7.32635 38.6614 7.05938 38.304 6.79688 37.6341C7.40872 37.4094 7.69023 37.3388 8.30078 37.5979C8.48512 37.7079 8.66945 37.8178 8.85938 37.931C10.572 38.8517 12.4132 39.216 14.2969 39.6344C14.3965 39.3601 14.496 39.0858 14.5986 38.8032C14.7324 38.4395 14.8661 38.0759 15 37.7122C15.0653 37.5319 15.1305 37.3516 15.1978 37.1658C15.3286 36.8119 15.4645 36.4599 15.6055 36.1099C15.764 35.7155 15.9058 35.3144 16.043 34.912C16.929 33.9829 18.1758 34.0095 19.4062 33.8523C19.9523 33.7735 20.4982 33.6938 21.0439 33.613C21.3049 33.5751 21.5658 33.5372 21.8346 33.4981C22.9025 33.3263 23.921 33.0553 24.9551 32.7379C26.2582 32.5078 27.2561 32.9285 28.3418 33.6189Z" fill="#DCDCDC"/>
<path d="M11.5469 22.882C12.0286 24.1059 11.3992 25.1664 10.9756 26.3347C10.7638 27.2802 10.8122 27.5547 11.2969 28.3828C12.1044 29.4682 13.0312 30.4575 13.9344 31.4629C14.2969 31.8833 14.2969 31.8833 14.79 32.5738C15.2663 33.1956 15.5902 33.5405 16.2969 33.8836C17.7608 33.9534 19.1196 33.6863 20.5469 33.3835C20.9821 33.2956 21.4173 33.2077 21.8525 33.1198C22.6817 32.9497 23.5082 32.7703 24.334 32.5845C25.2969 32.3833 25.2969 32.3833 26.0469 32.3833C26.1706 32.1358 26.1706 32.1358 26.2969 31.8833C26.2969 32.1308 26.2969 32.3783 26.2969 32.6334C25.7982 32.7836 25.2978 32.9281 24.7969 33.0709C24.554 33.1419 24.554 33.1419 24.3062 33.2143C23.2106 33.5141 22.1558 33.6848 21.0234 33.782C18.3793 33.9045 18.3793 33.9045 16.1115 35.0491C15.3732 36.1565 15.0606 37.3418 14.7969 38.6342C14.745 38.8821 14.6931 39.1299 14.6396 39.3853C14.5937 39.6323 14.5937 39.6323 14.5469 39.8844C7.86066 38.5229 7.86066 38.5229 6.48438 36.5968C5.9991 35.7222 5.64145 34.8219 5.29688 33.8836C5.21051 33.6541 5.12414 33.4246 5.03516 33.1881C4.5616 31.7762 4.38832 30.3651 4.29688 28.8829C6.28912 28.3421 8.27611 27.8081 10.2969 27.3827C10.3662 27.0997 10.4354 26.8167 10.5068 26.5251C10.5983 26.1546 10.6897 25.7841 10.7812 25.4136C10.8269 25.227 10.8725 25.0404 10.9194 24.8481C11.2686 23.4388 11.2686 23.4388 11.5469 22.882Z" fill="#40403F"/>
<path d="M21.7656 0.00394762C22.0176 0.00715057 22.2696 0.0103535 22.5292 0.0136535C26.3666 0.115841 29.4541 1.02988 32.7969 2.87934C32.7969 4.28203 32.7969 5.68472 32.7969 7.12992C31.8542 7.25032 30.9115 7.37003 29.9687 7.48935C29.7056 7.52303 29.4425 7.55671 29.1714 7.59141C28.6416 7.65825 28.1117 7.72325 27.5815 7.78644C27.0631 7.84827 26.5452 7.914 26.0278 7.98386C23.8404 8.24705 23.8404 8.24705 22.8281 7.45809C21.1497 6.30136 19.2568 5.8579 17.2969 5.37968C17.0487 3.95276 17.0207 2.57578 17.0469 1.1291C18.6666 0.168534 19.897 -0.0322963 21.7656 0.00394762Z" fill="#FCFDFC"/>
<path d="M39.0469 14.1309C40.9031 14.3784 40.9031 14.3784 42.7969 14.6309C43.8095 17.0707 44.1492 19.5145 44.1563 22.1476C44.157 22.3942 44.1578 22.6409 44.1586 22.895C44.1204 25.2797 43.5765 27.3934 42.7969 29.633C42.7144 29.8805 42.6319 30.128 42.5469 30.3831C42.1563 30.3899 41.7656 30.3947 41.375 30.3987C41.1575 30.4016 40.9399 30.4045 40.7158 30.4075C40.0499 30.3832 39.4454 30.2815 38.7969 30.133C38.7872 29.8376 38.7872 29.8376 38.7773 29.5363C38.682 27.704 38.3778 26.1104 37.7813 24.3754C37.3428 22.9848 37.1883 22.2622 37.8366 20.9217C38.3027 19.7249 38.409 18.4116 38.5938 17.1469C38.6602 16.7115 38.6602 16.7115 38.728 16.2674C38.8364 15.5555 38.9419 14.8432 39.0469 14.1309Z" fill="#DEDEDD"/>
<path d="M27.6963 33.2359C28.3209 33.6075 28.9365 33.989 29.5469 34.3834C29.0259 35.9464 26.6512 36.8191 25.2227 37.5621C22.3899 38.9198 19.5036 39.9383 16.3438 39.899C16.1705 39.8979 15.9973 39.8968 15.8188 39.8956C15.3948 39.8927 14.9709 39.8882 14.5469 39.8834C14.6886 38.5998 14.9677 37.5137 15.4531 36.3053C15.5698 36.002 15.6864 35.6988 15.8066 35.3863C16.2969 34.6334 16.2969 34.6334 17.0449 34.3102C17.3774 34.2433 17.7117 34.1854 18.0469 34.1334C18.3696 34.0738 18.3696 34.0738 18.6989 34.013C19.6922 33.833 20.6884 33.6717 21.6846 33.5084C23.2604 33.2445 23.2604 33.2445 24.8076 32.8521C25.9578 32.5118 26.6459 32.6657 27.6963 33.2359Z" fill="#FDFDFD"/>
<path d="M37.5469 24.3823C38.3958 24.9483 38.4954 25.2706 38.7119 26.239C38.8829 27.5341 38.824 28.8293 38.7969 30.133C40.5294 30.2568 40.5294 30.2568 42.2969 30.3831C42.2969 30.4656 42.2969 30.5481 42.2969 30.6331C41.0594 30.6331 39.8219 30.6331 38.5469 30.6331C38.3819 30.9632 38.2169 31.2932 38.0469 31.6333C36.8872 33.2943 35.0294 35.2125 33.1025 35.8711C32.9192 35.9578 32.7358 36.0445 32.5469 36.1339C32.3721 36.6953 32.3721 36.6953 32.2969 37.384C31.9766 38.1805 31.6452 38.9685 31.2959 39.7525C30.8829 40.7309 30.7051 41.3631 31.0469 42.3847C27.7118 43.9308 24.4113 44.2632 20.7969 44.135C20.7969 43.9699 20.7969 43.8049 20.7969 43.6349C20.5855 43.6143 20.3741 43.5936 20.1562 43.5724C19.1166 43.3455 18.4479 42.9434 17.5469 42.3847C17.7944 42.261 17.7944 42.261 18.0469 42.1347C18.5842 42.3608 19.0883 42.6329 19.6025 42.9073C21.5321 43.5397 23.5317 42.9932 25.4531 42.5566C25.7026 42.5033 25.952 42.4499 26.209 42.395C28.5853 41.9607 28.5853 41.9607 30.4648 40.6023C30.5538 40.4015 30.6427 40.2007 30.7344 39.9938C30.832 39.7749 30.9297 39.5561 31.0303 39.3306C31.4332 38.2782 31.7517 37.2216 32.0469 36.1339C31.3044 35.7213 30.5619 35.3088 29.7969 34.8837C30.0755 34.0478 30.2906 33.8685 30.9531 33.321C33.791 30.8976 36.216 27.9131 37.5469 24.3823Z" fill="#2C2D2C"/>
<path d="M40.8877 30.4964C41.5469 30.6331 41.5469 30.6331 42.2969 31.1332C39.641 36.036 36.4416 39.7591 31.2969 42.1347C31.0494 41.9697 30.8019 41.8046 30.5469 41.6346C30.7126 41.1198 30.8806 40.6057 31.0566 40.0944C31.2271 39.5905 31.3861 39.0827 31.5371 38.5727C32.2452 36.4004 33.0941 35.51 35.0469 34.3836C35.8234 33.8089 36.4328 33.3015 36.9766 32.5006C38.1323 30.8141 38.822 30.3588 40.8877 30.4964Z" fill="#DDDDDC"/>
<path d="M3.54688 9.88028C3.62938 9.88028 3.71187 9.88028 3.79688 9.88028C3.79688 10.7879 3.79688 11.6955 3.79688 12.6307C3.96188 12.7132 4.12687 12.7957 4.29688 12.8807C4.11641 13.0921 3.93594 13.3036 3.75 13.5214C2.18728 15.7086 1.63634 18.808 1.04688 21.3819C0.716875 21.3819 0.386875 21.3819 0.046875 21.3819C0.115041 17.8739 0.928929 12.4986 3.54688 9.88028Z" fill="#3D3E3C"/>
<path d="M32.0469 36.3839C32.2119 36.3839 32.3769 36.3839 32.5469 36.3839C32.1383 37.8669 31.6733 39.2398 30.9648 40.6081C30.7513 41.2773 30.8648 41.716 31.0469 42.3847C27.7118 43.9309 24.4113 44.2632 20.7969 44.135C20.7969 43.9699 20.7969 43.8049 20.7969 43.6349C20.5855 43.6143 20.3741 43.5936 20.1562 43.5724C19.1166 43.3455 18.4479 42.9435 17.5469 42.3847C17.7119 42.3022 17.8769 42.2197 18.0469 42.1347C18.5842 42.3608 19.0883 42.6329 19.6025 42.9073C21.5321 43.5397 23.5317 42.9933 25.4531 42.5566C25.7026 42.5033 25.952 42.4499 26.209 42.395C28.5902 41.9614 28.5902 41.9614 30.4648 40.5935C30.5538 40.3904 30.6427 40.1874 30.7344 39.9782C30.832 39.759 30.9297 39.5398 31.0303 39.314C31.4089 38.3486 31.7516 37.3781 32.0469 36.3839Z" fill="#393A38"/>
<path d="M39.0469 8.3801C40.6371 9.78324 41.6998 11.7006 42.5469 13.6301C42.5469 13.8776 42.5469 14.1251 42.5469 14.3801C41.6394 14.3801 40.7319 14.3801 39.7969 14.3801C39.671 13.5677 39.5461 12.7552 39.4219 11.9426C39.3861 11.7125 39.3503 11.4824 39.3135 11.2453C39.2796 11.023 39.2458 10.8006 39.2109 10.5715C39.1795 10.3673 39.1481 10.163 39.1157 9.95261C39.0469 9.3801 39.0469 9.3801 39.0469 8.3801Z" fill="#2C2D2C"/>
<path d="M39.0469 14.1309C39.2944 14.1309 39.5419 14.1309 39.7969 14.1309C39.9396 17.6105 39.348 20.6454 38.0469 23.8822C37.6699 23.5472 37.6699 23.5472 37.2969 23.1321C37.331 22.4316 37.4844 21.8182 37.707 21.1543C38.4629 18.8743 38.7248 16.503 39.0469 14.1309Z" fill="#F9F9F9"/>
<path d="M7.04688 37.384C7.88937 37.5624 8.62155 37.8764 9.40625 38.2278C10.9993 38.9055 12.6026 39.2979 14.2969 39.634C14.2969 39.799 14.2969 39.964 14.2969 40.134C8.64806 39.913 8.64806 39.913 7.22168 38.6077C7.08149 38.4514 6.94131 38.2951 6.79688 38.134C6.87938 37.8865 6.96187 37.639 7.04688 37.384Z" fill="#F7F8F7"/>
<path d="M18.5469 0.37894C17.6094 1.12894 17.6094 1.12894 17.0469 1.12894C17.1294 2.53144 17.2119 3.93394 17.2969 5.37894C17.0494 5.37894 16.8019 5.37894 16.5469 5.37894C16.6294 4.05894 16.7119 2.73894 16.7969 1.37894C16.1369 1.37894 15.4769 1.37894 14.7969 1.37894C15.738 0.437809 17.255 0.298199 18.5469 0.37894Z" fill="#626460"/>
</svg>
