<svg width="56" height="56" viewBox="0 0 56 56" fill="none" xmlns="http://www.w3.org/2000/svg">
<circle cx="28" cy="28" r="28" fill="#32B846"/>
<path d="M21.625 7.34767C21.9561 7.35444 21.9561 7.35444 22.2939 7.36135C22.5429 7.37005 22.5429 7.37005 22.7969 7.37893C23.1847 10.1109 23.1847 10.1109 22.7969 11.3795C21.8432 12.3277 20.75 12.8213 19.5469 13.3797C18.7836 13.8744 18.1834 14.4244 17.6758 15.1886C16.6133 16.7774 16.6133 16.7774 15.5361 17.1273C14.7891 17.2443 14.0498 17.3163 13.2969 17.3803C13.0494 17.5041 13.0494 17.5041 12.7969 17.6303C13.1681 17.5066 13.1681 17.5066 13.5469 17.3803C14.0206 17.3632 14.4948 17.3591 14.9688 17.3647C15.2172 17.3669 15.4657 17.3692 15.7217 17.3715C16.0064 17.3759 16.0064 17.3759 16.2969 17.3803C16.3488 17.5592 16.4006 17.7381 16.4541 17.9224C17.0885 19.9746 17.9946 21.7647 19.0469 23.6311C19.2162 23.9632 19.3841 24.296 19.5469 24.6313C19.7499 24.5617 19.9529 24.492 20.1621 24.4203C21.9383 23.8399 23.7397 23.3546 25.5469 22.881C25.8466 22.8001 26.1463 22.7192 26.4551 22.6359C28.279 22.2221 28.279 22.2221 29.0625 22.6867C29.4844 23.0998 29.4844 23.0998 30.0469 23.8812C29.0459 22.9045 29.0459 22.9045 28.7969 22.381C28.8765 20.63 29.3766 18.9464 29.8125 17.2553C29.9181 16.8395 29.9181 16.8395 30.0259 16.4153C30.1985 15.7366 30.3722 15.0581 30.5469 14.3799C31.5517 14.2361 32.5568 14.0937 33.562 13.9526C33.9035 13.9044 34.2448 13.8559 34.5862 13.8071C35.0788 13.7366 35.5716 13.6675 36.0645 13.5985C36.3603 13.5566 36.6562 13.5147 36.9611 13.4716C39.0876 13.238 39.0876 13.238 39.9746 13.8388C44.7142 18.3566 44.7142 18.3566 44.8418 20.3231C44.1781 26.9528 44.1781 26.9528 43.0469 28.3818C42.135 28.6842 41.2191 28.7648 40.2656 28.8506C40.0136 28.8796 39.7616 28.9086 39.502 28.9385C35.4293 29.3817 35.4293 29.3817 34.2812 28.6318C34.1214 28.4668 33.9616 28.3018 33.7969 28.1318C34.2094 28.5443 34.6219 28.9569 35.0469 29.3819C34.872 30.0273 34.6962 30.6723 34.5188 31.3169C34.3728 31.8533 34.2306 32.3907 34.0925 32.9292C32.826 37.7394 32.826 37.7394 31.599 38.7532C30.5706 39.2405 29.5099 39.3106 28.3854 39.3492C27.5586 39.3971 26.7661 39.5619 25.9545 39.7204C23.0788 40.2814 23.0788 40.2814 22.0469 39.8834C21.5293 39.4587 21.084 39.0513 20.625 38.5707C20.4967 38.4371 20.3684 38.3035 20.2363 38.1658C19.8356 37.7419 19.4414 37.3126 19.0469 36.883C18.9168 36.7471 18.7868 36.6113 18.6528 36.4713C16.538 34.2376 16.538 34.2376 16.5596 32.7691C16.7478 32.0161 16.982 31.3401 17.2969 30.6321C17.2969 30.5496 17.2969 30.4671 17.2969 30.3821C17.2713 30.6809 17.2713 30.6809 17.2451 30.9857C17.0614 31.9603 16.868 32.5627 16.2969 33.3825C14.8548 34.2096 13.1557 34.5255 11.5469 34.8827C11.2133 34.9651 10.8799 35.0481 10.5469 35.1327C10.8172 37.6349 11.3657 39.8935 12.7119 42.0477C13.0469 42.6337 13.0469 42.6337 13.0469 43.3838C12.7994 43.4664 12.5519 43.5489 12.2969 43.6339C8.51025 39.7359 6.01783 34.5303 6 29.0381C6.01175 28.5692 6.02586 28.1003 6.04688 27.6317C6.37688 27.6317 6.70687 27.6317 7.04688 27.6317C7.09521 27.8757 7.14355 28.1197 7.19336 28.3711C7.25846 28.6892 7.32355 29.0073 7.39062 29.3351C7.45443 29.6512 7.51824 29.9674 7.58398 30.2932C7.75382 31.1578 7.75382 31.1578 8.29688 31.8823C8.17828 31.6193 8.05969 31.3563 7.9375 31.0853C6.59858 28.116 7.3473 24.846 8.29688 21.8809C8.78084 20.7207 9.3505 19.6752 10.0469 18.6305C10.0118 18.093 9.96296 17.5564 9.90625 17.0209C9.88436 15.6948 10.0329 14.9327 10.9148 13.9138C11.4062 13.4073 11.9119 12.9228 12.438 12.4525C12.7493 12.1724 13.0461 11.8763 13.3398 11.5777C15.3119 9.63984 18.7724 7.27159 21.625 7.34767Z" fill="#FCFDFC"/>
<path d="M43.5469 26.8818C43.7969 27.6319 43.7969 27.6319 43.625 28.257C43.5228 29.4013 43.873 30.1825 44.2949 31.2359C44.9328 32.8728 44.8144 34.3814 44.7969 36.133C46.5294 36.2568 46.5294 36.2568 48.2969 36.3831C48.2969 36.4656 48.2969 36.5481 48.2969 36.6331C47.0594 36.6331 45.8219 36.6331 44.5469 36.6331C44.3819 36.9632 44.2169 37.2932 44.0469 37.6332C42.8872 39.2942 41.0294 41.2125 39.1025 41.8711C38.9192 41.9578 38.7358 42.0445 38.5469 42.1339C38.3721 42.6953 38.3721 42.6953 38.2969 43.384C37.9766 44.1804 37.6452 44.9685 37.2959 45.7525C36.8829 46.7309 36.7051 47.3631 37.0469 48.3847C33.7118 49.9308 30.4113 50.2632 26.7969 50.135C26.7969 49.9699 26.7969 49.8049 26.7969 49.6349C26.5855 49.6143 26.3741 49.5936 26.1562 49.5724C25.1166 49.3455 24.4479 48.9434 23.5469 48.3847C23.7119 48.3022 23.8769 48.2197 24.0469 48.1347C24.5842 48.3608 25.0883 48.6329 25.6025 48.9072C27.5321 49.5396 29.5317 48.9932 31.4531 48.5566C31.7026 48.5033 31.952 48.4499 32.209 48.395C34.5853 47.9607 34.5853 47.9607 36.4648 46.6022C36.5538 46.4014 36.6427 46.2006 36.7344 45.9938C36.8259 45.7975 36.9174 45.6012 37.0117 45.399C37.4116 44.3266 37.7292 43.2329 38.0469 42.1339C37.1714 41.5791 36.2896 41.0352 35.4062 40.493C35.0348 40.2573 35.0348 40.2573 34.6558 40.0169C33.2428 39.1328 33.2428 39.1328 31.6348 38.8776C31.3583 38.962 31.0818 39.0464 30.7969 39.1334C30.4352 39.2115 30.0728 39.2865 29.71 39.3591C29.1067 39.4902 28.5043 39.624 27.9026 39.7617C26.9334 39.9763 26.0152 40.1591 25.0205 40.1697C24.0689 40.1973 23.413 40.2325 22.5469 40.6337C21.3921 42.0809 20.8473 44.0849 20.5469 45.8844C13.8607 44.5229 13.8607 44.5229 12.4844 42.5968C11.9991 41.7222 11.6415 40.8219 11.2969 39.8836C11.2105 39.6541 11.1241 39.4246 11.0352 39.1881C10.5616 37.7762 10.3883 36.3651 10.2969 34.8829C12.2891 34.3421 14.2761 33.8081 16.2969 33.3827C16.3633 33.0997 16.4296 32.8167 16.498 32.5251C16.5871 32.1546 16.6763 31.7841 16.7656 31.4136C16.8091 31.227 16.8526 31.0404 16.8975 30.8481C17.2402 29.4388 17.2402 29.4388 17.7969 28.882C17.7711 29.109 17.7453 29.3359 17.7188 29.5696C17.701 29.7311 17.6833 29.8926 17.665 30.059C17.5469 30.6323 17.5469 30.6323 17.249 31.2759C16.8916 32.1407 16.7437 32.6917 16.7969 33.6327C17.4856 34.994 18.5809 36.0886 19.6279 37.1802C20.0469 37.6332 20.0469 37.6332 20.6172 38.4058C21.1468 39.0879 21.5261 39.4912 22.2969 39.8836C23.7695 39.9762 25.1139 39.6991 26.5469 39.3835C26.9817 39.2948 27.4166 39.2065 27.8516 39.1188C28.6812 38.9493 29.5079 38.7705 30.334 38.5845C31.2969 38.3833 31.2969 38.3833 32.0469 38.3833C32.1093 38.1375 32.1093 38.1375 32.173 37.8866C32.7113 35.8341 33.4141 33.8627 34.1665 31.88C34.255 31.6362 34.3434 31.3924 34.4346 31.1411C34.5162 30.923 34.5978 30.7048 34.6819 30.48C34.8221 29.7512 34.7013 29.491 34.2969 28.882C33.9116 28.4547 33.9116 28.4547 33.5469 28.1319C33.6294 27.9669 33.7119 27.8019 33.7969 27.6319C33.9567 27.8382 34.1166 28.0444 34.2812 28.257C35.1172 28.9395 35.5216 29.018 36.5811 28.9592C37.6676 28.8421 38.7527 28.7136 39.8348 28.5602C40.9141 28.4102 41.9578 28.3593 43.0469 28.382C43.2119 27.8869 43.3769 27.3918 43.5469 26.8818Z" fill="#3D3D3C"/>
<path d="M39.0469 9.37939C41.155 10.2228 42.9657 11.7546 44.5469 13.3799C44.5469 13.545 44.5469 13.71 44.5469 13.88C44.7944 13.9625 45.0419 14.045 45.2969 14.13C45.695 14.6705 46.0544 15.2016 46.4062 15.7709C46.506 15.9296 46.6057 16.0882 46.7084 16.2517C48.5469 19.2081 48.5469 19.2081 48.5469 20.3809C48.1042 20.3877 47.6615 20.3925 47.2188 20.3965C46.849 20.4009 46.849 20.4009 46.4717 20.4053C45.7969 20.3809 45.7969 20.3809 45.0469 20.1309C45.0375 20.3668 45.0282 20.6027 45.0186 20.8458C44.9112 22.9427 44.6463 24.8571 44.0469 26.8818C43.9644 26.8818 43.8819 26.8818 43.7969 26.8818C43.9405 25.207 44.1667 23.5582 44.4463 21.9006C44.6379 20.4343 44.6725 19.6075 43.7656 18.3963C43.6048 18.1809 43.444 17.9656 43.2783 17.7438C43.1194 17.5414 42.9606 17.339 42.7969 17.1305C42.6715 16.9693 42.5462 16.8081 42.417 16.6421C42.0592 16.2044 41.6823 15.7936 41.2969 15.3802C41.1628 15.2136 41.0288 15.0469 40.8906 14.8753C40.1236 14.037 39.6113 13.6567 38.458 13.5587C37.4775 13.6166 36.5165 13.7303 35.5469 13.88C35.0678 13.9467 35.0678 13.9467 34.5791 14.0148C33.9943 14.0977 33.4102 14.1854 32.8271 14.2795C32.0574 14.3787 31.322 14.3976 30.5469 14.3801C30.5224 14.5293 30.4979 14.6785 30.4727 14.8323C30.2767 15.9696 30.0609 17.0955 29.7822 18.2156C29.7359 18.4028 29.6896 18.5901 29.6418 18.7831C29.5486 19.1556 29.4531 19.5275 29.3552 19.8988C29.1081 20.8886 28.9576 21.6544 29.2969 22.6312C29.7864 23.2045 29.7864 23.2045 30.2969 23.6313C30.1731 23.8789 30.1731 23.8789 30.0469 24.1314C29.7486 23.7495 29.7486 23.7495 29.4443 23.3598C28.9556 22.8737 28.7088 22.6453 28.0148 22.5851C27.3899 22.6753 26.7975 22.8121 26.1875 22.975C25.9687 23.0263 25.7499 23.0777 25.5245 23.1306C24.8627 23.2885 24.205 23.4585 23.5469 23.6313C23.1657 23.727 22.7846 23.8224 22.4033 23.9175C20.8112 24.2903 20.8112 24.2903 19.2969 24.8815C19.1944 24.634 19.0919 24.3864 18.9863 24.1314C18.6969 23.4553 18.3843 22.7992 18.0449 22.1468C17.9582 21.9798 17.8715 21.8129 17.7822 21.6408C17.6041 21.3001 17.4244 20.9602 17.2432 20.6212C16.6774 19.5233 16.4028 18.613 16.2969 17.3805C14.5848 17.5021 12.9643 17.7205 11.2969 18.1306C11.8602 17.5672 12.1983 17.463 12.9531 17.2398C13.1774 17.1728 13.4017 17.1058 13.6328 17.0367C14.2312 16.8959 14.7188 16.8648 15.3281 16.8648C16.6449 16.5462 16.9709 15.8723 17.7471 14.8079C19.0131 13.247 21.0151 11.7229 23.0469 11.3797C25.2769 11.2619 27.5639 12.1175 29.3125 13.4737C30.4787 14.1189 31.5151 13.829 32.7969 13.63C34.8994 13.3299 36.9206 13.0645 39.0469 13.1299C39.0469 11.8922 39.0469 10.6546 39.0469 9.37939Z" fill="#3F3F3E"/>
<path d="M34.3418 39.6189C34.5738 39.7648 34.8059 39.9106 35.0449 40.0609C35.2828 40.2138 35.5206 40.3667 35.7656 40.5243C36.0093 40.6782 36.2529 40.8321 36.5039 40.9907C37.103 41.3696 37.7005 41.7507 38.2969 42.1339C38.1122 42.7288 37.9243 43.3222 37.7344 43.9154C37.6831 44.0817 37.6319 44.248 37.5791 44.4194C37.1177 45.8456 36.6524 47.0445 35.2871 47.8114C34.0433 48.2638 32.7449 48.5305 31.4531 48.8067C31.2056 48.8629 30.9581 48.9192 30.7031 48.9771C28.3269 49.4929 26.5408 49.6141 24.2969 48.6348C25.1219 48.9648 25.9469 49.2949 26.7969 49.6349C26.7969 49.8 26.7969 49.965 26.7969 50.135C22.0778 50.3356 17.5212 47.9266 13.8613 45.1539C13.3264 44.6614 13.0594 44.304 12.7969 43.6341C13.4087 43.4095 13.6902 43.3388 14.3008 43.598C14.4851 43.7079 14.6695 43.8178 14.8594 43.931C16.572 44.8518 18.4132 45.216 20.2969 45.6344C20.3965 45.3601 20.496 45.0858 20.5986 44.8032C20.7324 44.4395 20.8661 44.0759 21 43.7122C21.0653 43.5319 21.1305 43.3516 21.1978 43.1658C21.3286 42.8119 21.4645 42.4599 21.6055 42.11C21.764 41.7155 21.9058 41.3144 22.043 40.9121C22.929 39.983 24.1758 40.0095 25.4062 39.8523C25.9523 39.7735 26.4982 39.6938 27.0439 39.6131C27.3049 39.5751 27.5658 39.5372 27.8346 39.4982C28.9025 39.3263 29.921 39.0553 30.9551 38.7379C32.2582 38.5078 33.2561 38.9285 34.3418 39.6189Z" fill="#DCDCDC"/>
<path d="M17.5469 28.8821C18.0286 30.106 17.3992 31.1664 16.9756 32.3347C16.7638 33.2802 16.8122 33.5547 17.2969 34.3828C18.1044 35.4682 19.0312 36.4575 19.9344 37.463C20.2969 37.8833 20.2969 37.8833 20.79 38.5738C21.2663 39.1956 21.5902 39.5405 22.2969 39.8836C23.7608 39.9535 25.1196 39.6863 26.5469 39.3835C26.9821 39.2956 27.4173 39.2077 27.8525 39.1198C28.6817 38.9497 29.5082 38.7704 30.334 38.5846C31.2969 38.3834 31.2969 38.3834 32.0469 38.3834C32.1706 38.1358 32.1706 38.1358 32.2969 37.8833C32.2969 38.1308 32.2969 38.3784 32.2969 38.6334C31.7982 38.7837 31.2978 38.9282 30.7969 39.071C30.554 39.1419 30.554 39.1419 30.3062 39.2143C29.2106 39.5141 28.1558 39.6848 27.0234 39.782C24.3793 39.9045 24.3793 39.9045 22.1115 41.0491C21.3732 42.1566 21.0606 43.3418 20.7969 44.6342C20.745 44.8821 20.6931 45.1299 20.6396 45.3853C20.5937 45.6324 20.5937 45.6324 20.5469 45.8844C13.8607 44.5229 13.8607 44.5229 12.4844 42.5968C11.9991 41.7222 11.6415 40.822 11.2969 39.8836C11.2105 39.6541 11.1241 39.4246 11.0352 39.1882C10.5616 37.7763 10.3883 36.3651 10.2969 34.8829C12.2891 34.3421 14.2761 33.8082 16.2969 33.3827C16.3662 33.0997 16.4354 32.8167 16.5068 32.5252C16.5983 32.1547 16.6897 31.7842 16.7812 31.4137C16.8269 31.2271 16.8725 31.0404 16.9194 30.8482C17.2686 29.4388 17.2686 29.4388 17.5469 28.8821Z" fill="#40403F"/>
<path d="M27.7656 6.00395C28.0176 6.00715 28.2696 6.01035 28.5292 6.01365C32.3666 6.11584 35.4541 7.02988 38.7969 8.87934C38.7969 10.282 38.7969 11.6847 38.7969 13.1299C37.8542 13.2503 36.9115 13.37 35.9687 13.4893C35.7056 13.523 35.4425 13.5567 35.1714 13.5914C34.6416 13.6582 34.1117 13.7233 33.5815 13.7864C33.0631 13.8483 32.5452 13.914 32.0278 13.9839C29.8404 14.247 29.8404 14.247 28.8281 13.4581C27.1497 12.3014 25.2568 11.8579 23.2969 11.3797C23.0487 9.95276 23.0207 8.57578 23.0469 7.1291C24.6666 6.16853 25.897 5.9677 27.7656 6.00395Z" fill="#FCFDFC"/>
<path d="M45.0469 20.1309C46.9031 20.3784 46.9031 20.3784 48.7969 20.6309C49.8095 23.0707 50.1492 25.5145 50.1563 28.1476C50.157 28.3942 50.1578 28.6409 50.1586 28.895C50.1204 31.2797 49.5765 33.3934 48.7969 35.633C48.7144 35.8805 48.6319 36.128 48.5469 36.3831C48.1563 36.3899 47.7656 36.3947 47.375 36.3987C47.1575 36.4016 46.9399 36.4045 46.7158 36.4075C46.0499 36.3832 45.4454 36.2815 44.7969 36.133C44.7872 35.8376 44.7872 35.8376 44.7773 35.5363C44.682 33.704 44.3778 32.1104 43.7813 30.3754C43.3428 28.9848 43.1883 28.2622 43.8366 26.9217C44.3027 25.7249 44.409 24.4116 44.5938 23.1469C44.6602 22.7115 44.6602 22.7115 44.728 22.2674C44.8364 21.5555 44.9419 20.8432 45.0469 20.1309Z" fill="#DEDEDD"/>
<path d="M33.6963 39.236C34.3209 39.6076 34.9365 39.989 35.5469 40.3834C35.0259 41.9464 32.6512 42.8191 31.2227 43.5621C28.3899 44.9198 25.5036 45.9384 22.3438 45.8991C22.1705 45.8979 21.9973 45.8968 21.8188 45.8956C21.3948 45.8927 20.9709 45.8882 20.5469 45.8834C20.6886 44.5998 20.9677 43.5137 21.4531 42.3053C21.5698 42.0021 21.6864 41.6988 21.8066 41.3864C22.2969 40.6334 22.2969 40.6334 23.0449 40.3102C23.3774 40.2433 23.7117 40.1855 24.0469 40.1334C24.3696 40.0738 24.3696 40.0738 24.6989 40.013C25.6922 39.833 26.6884 39.6717 27.6846 39.5084C29.2604 39.2446 29.2604 39.2446 30.8076 38.8522C31.9578 38.5118 32.6459 38.6658 33.6963 39.236Z" fill="#FDFDFD"/>
<path d="M43.5469 30.3823C44.3958 30.9483 44.4954 31.2706 44.7119 32.239C44.8829 33.5341 44.824 34.8293 44.7969 36.133C46.5294 36.2568 46.5294 36.2568 48.2969 36.3831C48.2969 36.4656 48.2969 36.5481 48.2969 36.6331C47.0594 36.6331 45.8219 36.6331 44.5469 36.6331C44.3819 36.9632 44.2169 37.2932 44.0469 37.6333C42.8872 39.2943 41.0294 41.2125 39.1025 41.8711C38.9192 41.9578 38.7358 42.0445 38.5469 42.1339C38.3721 42.6953 38.3721 42.6953 38.2969 43.384C37.9766 44.1805 37.6452 44.9685 37.2959 45.7525C36.8829 46.7309 36.7051 47.3631 37.0469 48.3847C33.7118 49.9308 30.4113 50.2632 26.7969 50.135C26.7969 49.9699 26.7969 49.8049 26.7969 49.6349C26.5855 49.6143 26.3741 49.5936 26.1562 49.5724C25.1166 49.3455 24.4479 48.9434 23.5469 48.3847C23.7944 48.261 23.7944 48.261 24.0469 48.1347C24.5842 48.3608 25.0883 48.6329 25.6025 48.9073C27.5321 49.5397 29.5317 48.9932 31.4531 48.5566C31.7026 48.5033 31.952 48.4499 32.209 48.395C34.5853 47.9607 34.5853 47.9607 36.4648 46.6023C36.5538 46.4015 36.6427 46.2007 36.7344 45.9938C36.832 45.7749 36.9297 45.5561 37.0303 45.3306C37.4332 44.2782 37.7517 43.2216 38.0469 42.1339C37.3044 41.7213 36.5619 41.3088 35.7969 40.8837C36.0755 40.0478 36.2906 39.8685 36.9531 39.321C39.791 36.8976 42.216 33.9131 43.5469 30.3823Z" fill="#2C2D2C"/>
<path d="M46.8877 36.4964C47.5469 36.6332 47.5469 36.6332 48.2969 37.1332C45.641 42.036 42.4416 45.7591 37.2969 48.1347C37.0494 47.9697 36.8019 47.8047 36.5469 47.6347C36.7126 47.1199 36.8806 46.6057 37.0566 46.0944C37.2271 45.5905 37.3861 45.0828 37.5371 44.5727C38.2452 42.4004 39.0941 41.5101 41.0469 40.3837C41.8234 39.8089 42.4328 39.3015 42.9766 38.5006C44.1323 36.8141 44.822 36.3589 46.8877 36.4964Z" fill="#DDDDDC"/>
<path d="M9.54688 15.8803C9.62938 15.8803 9.71187 15.8803 9.79688 15.8803C9.79688 16.7879 9.79688 17.6956 9.79688 18.6307C9.96188 18.7132 10.1269 18.7957 10.2969 18.8807C10.1164 19.0922 9.93594 19.3036 9.75 19.5214C8.18728 21.7087 7.63634 24.808 7.04688 27.3819C6.71687 27.3819 6.38688 27.3819 6.04688 27.3819C6.11504 23.8739 6.92893 18.4986 9.54688 15.8803Z" fill="#3D3E3C"/>
<path d="M38.0469 42.3839C38.2119 42.3839 38.3769 42.3839 38.5469 42.3839C38.1383 43.8669 37.6733 45.2398 36.9648 46.6081C36.7513 47.2773 36.8648 47.716 37.0469 48.3847C33.7118 49.9309 30.4113 50.2632 26.7969 50.135C26.7969 49.9699 26.7969 49.8049 26.7969 49.6349C26.5855 49.6143 26.3741 49.5936 26.1562 49.5724C25.1166 49.3455 24.4479 48.9435 23.5469 48.3847C23.7119 48.3022 23.8769 48.2197 24.0469 48.1347C24.5842 48.3608 25.0883 48.6329 25.6025 48.9073C27.5321 49.5397 29.5317 48.9933 31.4531 48.5566C31.7026 48.5033 31.952 48.4499 32.209 48.395C34.5902 47.9614 34.5902 47.9614 36.4648 46.5935C36.5538 46.3904 36.6427 46.1874 36.7344 45.9782C36.832 45.759 36.9297 45.5398 37.0303 45.314C37.4089 44.3486 37.7516 43.3781 38.0469 42.3839Z" fill="#393A38"/>
<path d="M45.0469 14.3801C46.6371 15.7832 47.6998 17.7005 48.5469 19.6301C48.5469 19.8776 48.5469 20.1251 48.5469 20.3801C47.6394 20.3801 46.7319 20.3801 45.7969 20.3801C45.671 19.5677 45.5461 18.7552 45.4219 17.9426C45.3861 17.7125 45.3503 17.4824 45.3135 17.2453C45.2796 17.0229 45.2458 16.8006 45.2109 16.5715C45.1795 16.3672 45.1481 16.163 45.1157 15.9526C45.0469 15.3801 45.0469 15.3801 45.0469 14.3801Z" fill="#2C2D2C"/>
<path d="M45.0469 20.1309C45.2944 20.1309 45.5419 20.1309 45.7969 20.1309C45.9396 23.6105 45.348 26.6454 44.0469 29.8822C43.6699 29.5472 43.6699 29.5472 43.2969 29.1321C43.331 28.4316 43.4844 27.8182 43.707 27.1543C44.4629 24.8743 44.7248 22.503 45.0469 20.1309Z" fill="#F9F9F9"/>
<path d="M13.0469 43.384C13.8894 43.5624 14.6216 43.8764 15.4062 44.2278C16.9993 44.9055 18.6026 45.2979 20.2969 45.634C20.2969 45.799 20.2969 45.964 20.2969 46.134C14.6481 45.913 14.6481 45.913 13.2217 44.6077C13.0815 44.4514 12.9413 44.2951 12.7969 44.134C12.8794 43.8865 12.9619 43.639 13.0469 43.384Z" fill="#F7F8F7"/>
<path d="M24.5469 6.37894C23.6094 7.12894 23.6094 7.12894 23.0469 7.12894C23.1294 8.53144 23.2119 9.93394 23.2969 11.3789C23.0494 11.3789 22.8019 11.3789 22.5469 11.3789C22.6294 10.0589 22.7119 8.73894 22.7969 7.37894C22.1369 7.37894 21.4769 7.37894 20.7969 7.37894C21.738 6.43781 23.255 6.2982 24.5469 6.37894Z" fill="#626460"/>
</svg>
